PathFileType	4	(X/Y/Z)	/Users/itak/Documents/Research/Walk-IL/dataset/trc/00412_00012.trc
DataRate	CameraRate	NumFrames	NumMarkers	Units	OrigDataRate	OrigDataStartFrame	OrigNumFrames
100.000000	100.000000	4	54	mm	100.000000	328	438
Frame#	Time	LPSI			L3			STRN			T10			C7			CLAV			RBAK			LBAK			LSHO			LUPA			LAEL			LAOL			LWTS			LWPS			LFRA			LIFD			LHPS			LHTS			RSHO			RUPA			RAEL			RAOL			RWTS			RWPS			RFRA			RIFD			RHTS			RHPS			RBHD			LFHD			RFHD			LBHD			LHIP			RHIP			RASI			LASI			LKNE			LTHI			LANK			LTIP			LTOE			LMT1			LMT5			LHEE			RKNE			RTHI			RANK			RTIP			RTOE			RMT1			RMT5			RHEE			RPSI			*53			
		X1	Y1	Z1	X2	Y2	Z2	X3	Y3	Z3	X4	Y4	Z4	X5	Y5	Z5	X6	Y6	Z6	X7	Y7	Z7	X8	Y8	Z8	X9	Y9	Z9	X10	Y10	Z10	X11	Y11	Z11	X12	Y12	Z12	X13	Y13	Z13	X14	Y14	Z14	X15	Y15	Z15	X16	Y16	Z16	X17	Y17	Z17	X18	Y18	Z18	X19	Y19	Z19	X20	Y20	Z20	X21	Y21	Z21	X22	Y22	Z22	X23	Y23	Z23	X24	Y24	Z24	X25	Y25	Z25	X26	Y26	Z26	X27	Y27	Z27	X28	Y28	Z28	X29	Y29	Z29	X30	Y30	Z30	X31	Y31	Z31	X32	Y32	Z32	X33	Y33	Z33	X34	Y34	Z34	X35	Y35	Z35	X36	Y36	Z36	X37	Y37	Z37	X38	Y38	Z38	X39	Y39	Z39	X40	Y40	Z40	X41	Y41	Z41	X42	Y42	Z42	X43	Y43	Z43	X44	Y44	Z44	X45	Y45	Z45	X46	Y46	Z46	X47	Y47	Z47	X48	Y48	Z48	X49	Y49	Z49	X50	Y50	Z50	X51	Y51	Z51	X52	Y52	Z52	X53	Y53	Z53	X54	Y54	Z54	

329	3.28	756.0910034179688	948.6325073242188	234.0507354736328	816.1260375976562	1034.556884765625	261.0671691894531	920.2344970703125	1198.468017578125	55.47684860229492	802.2654418945312	1135.067749023438	267.4334411621094	802.7240600585938	1385.728515625	239.9371643066406	888.046875	1314.3486328125	106.5918731689453	839.5006103515625	1240.593383789062	309.7349243164062	705.3507080078125	1347.741577148438	200.0896911621094	706.3509521484375	1366.467041015625	100.2077255249023	630.57861328125	1250.98486328125	89.91259002685547	606.3740234375	1060.86474609375	60.11310577392578	635.866943359375	1030.624389648438	136.4233093261719	721.5545043945312	923.1317138671875	-75.82411193847656	644.5532836914062	890.3507690429688	-76.94639587402344	616.641845703125	979.0559692382812	8.204447746276855	753.8026733398438	776.8898315429688	-173.4629516601562	674.642333984375	827.0028686523438	-127.9518127441406	730.2473754882812	856.8250732421875	-148.9086761474609	965.79150390625	1368.772583007812	271.9505004882812	1001.608581542969	1307.678100585938	318.1612548828125	1012.835083007812	1051.36328125	373.3572082519531	932.0759887695312	1041.994018554688	325.1968994140625	1064.918701171875	818.8678588867188	297.072509765625	1078.759887695312	818.4436645507812	369.8085021972656	1038.346923828125	985.6248779296875	376.443603515625	1043.79248046875	650.861083984375	327.3737182617188	1080.785400390625	712.0905151367188	314.6005554199219	1072.634643554688	729.6657104492188	381.7121276855469	921.0867309570312	1575.992431640625	234.0028076171875	809.631103515625	1581.465087890625	69.4110107421875	928.2503662109375	1589.516479492188	100.5818634033203	764.9046020507812	1562.72509765625	209.0374755859375	690.1004638671875	938.1024169921875	104.8353271484375	1016.326354980469	943.0471801757812	258.2173156738281	1021.903747558594	958.9484252929688	116.0638809204102	777.5686645507812	941.0709838867188	17.70304107666016	814.4937744140625	446.4832458496094	87.87778472900391	774.3297119140625	586.1453247070312	79.40315246582031	841.03076171875	34.37477874755859	249.0888519287109	823.0626831054688	219.3385314941406	162.5660858154297	1000.362609863281	28.29820823669434	87.54881286621094	988.0010986328125	33.59992218017578	174.3267517089844	890.7508544921875	34.37752914428711	132.3154144287109	872.4459838867188	34.27426147460938	309.097412109375	1109.952270507812	497.3136291503906	70.28789520263672	1087.5517578125	742.665283203125	134.5933227539062	1061.89697265625	116.9822998046875	269.3169250488281	1106.775146484375	374.2105407714844	99.80319213867188	1105.97021484375	39.20066452026367	108.3667297363281	1039.594970703125	57.66112518310547	147.0464172363281	1112.0849609375	72.95909118652344	215.8103179931641	977.0708618164062	119.8312225341797	300.1736450195312	877.326171875	957.0169677734375	288.19970703125	nan	nan	nan	
330	3.29	762.4678344726562	949.44677734375	228.8997344970703	822.0091552734375	1034.567138671875	255.0825805664062	923.66015625	1199.006713867188	47.14746475219727	807.9857177734375	1135.385009765625	261.2990417480469	808.3479614257812	1386.025024414062	233.5675201416016	891.9223022460938	1314.657836914062	99.08802032470703	845.6329956054688	1240.921508789062	302.8501892089844	710.5287475585938	1348.077514648438	194.8822937011719	710.1387939453125	1366.948364257812	94.96631622314453	634.1350708007812	1251.38818359375	85.28060913085938	610.1419067382812	1061.869262695312	54.95626068115234	640.4210815429688	1030.492309570312	130.5901031494141	726.05126953125	930.494140625	-85.54374694824219	649.6920776367188	896.36328125	-87.21186828613281	620.8430786132812	982.0167236328125	1.135271191596985	760.5811767578125	787.9811401367188	-187.8971405029297	680.5855712890625	835.1942138671875	-140.4299774169922	735.5582885742188	866.7140502929688	-160.8460388183594	971.7498779296875	1368.978881835938	263.5095520019531	1007.888061523438	1308.166259765625	309.41650390625	1017.376953125	1052.060180664062	366.2668762207031	936.06396484375	1043.098266601562	318.9702453613281	1065.637573242188	818.211181640625	291.5677490234375	1080.403930664062	818.2618408203125	364.1108093261719	1042.191040039062	986.1835327148438	369.5619506835938	1041.710205078125	650.7513427734375	323.6536254882812	1079.8359375	711.30224609375	309.8994140625	1072.9814453125	729.66845703125	376.9724426269531	926.9124755859375	1576.054321289062	226.0333404541016	813.6567993164062	1581.65478515625	62.69405364990234	932.6423950195312	1589.478759765625	92.58139801025391	770.3396606445312	1563.086669921875	202.8253784179688	694.2239379882812	938.2128295898438	100.5770034790039	1022.921569824219	943.8541870117188	248.3590698242188	1026.041870117188	959.8141479492188	106.188346862793	780.1192626953125	940.9662475585938	11.94151878356934	814.9376220703125	446.4146728515625	86.6204833984375	775.8866577148438	586.3392333984375	77.430908203125	841.0712890625	34.54113006591797	249.1045379638672	823.281982421875	219.5307006835938	162.2049560546875	1000.279663085938	28.17732620239258	87.51726531982422	988.05078125	33.69064331054688	174.1355590820312	890.7723999023438	34.38577270507812	132.2810363769531	872.3587036132812	34.59234237670898	309.0565795898438	1113.92041015625	499.31884765625	55.68120574951172	1092.448364257812	744.2918701171875	122.3204345703125	1078.79736328125	108.9144744873047	237.7550506591797	1114.170288085938	374.8427429199219	80.54318237304688	1123.02392578125	40.54079437255859	72.84395599365234	1056.557373046875	54.83383560180664	113.189567565918	1129.606323242188	69.47077941894531	181.4810943603516	994.2547607421875	107.4544677734375	270.0242309570312	884.5153198242188	957.6454467773438	280.7895202636719	nan	nan	nan	
331	3.3	768.89697265625	950.13916015625	223.7171478271484	827.9224243164062	1034.449462890625	249.0018768310547	927.0720825195312	1199.332885742188	38.85932922363281	813.66357421875	1135.61376953125	255.2604522705078	813.9143676757812	1386.11376953125	227.0846862792969	895.801513671875	1314.754150390625	91.57444763183594	851.7138671875	1241.105834960938	295.9129638671875	715.6891479492188	1348.238891601562	189.5933990478516	713.9427490234375	1367.218994140625	89.65755462646484	637.7256469726562	1251.584716796875	80.56446075439453	614.013671875	1062.601928710938	49.76244354248047	644.9671020507812	1030.173095703125	124.7381896972656	730.4721069335938	937.48583984375	-94.86429595947266	654.748291015625	902.0604248046875	-97.09007263183594	625.0549926757812	984.6788940429688	-5.781084537506104	767.0478515625	798.6768798828125	-201.5129699707031	686.367919921875	843.0618286132812	-152.3808746337891	740.7144165039062	876.1947021484375	-172.2040710449219	977.6630249023438	1369.027099609375	255.0111389160156	1014.134582519531	1308.493408203125	300.6206970214844	1021.969421386719	1052.634155273438	359.0835571289062	940.0601196289062	1044.015258789062	312.6397399902344	1066.4951171875	817.5364379882812	285.8681335449219	1082.2451171875	818.029541015625	358.2066345214844	1046.108032226562	986.60986328125	362.5554809570312	1039.798828125	650.5897827148438	319.6121520996094	1079.17333984375	710.5410766601562	304.9667663574219	1073.628173828125	729.6367797851562	371.9885559082031	932.6882934570312	1575.891845703125	218.0656280517578	817.5808715820312	1581.71826171875	56.03281402587891	936.951171875	1589.330688476562	84.60415649414062	775.7374267578125	1563.19970703125	196.6592407226562	698.3495483398438	938.22998046875	96.32340240478516	1029.478881835938	944.3922119140625	238.4227294921875	1030.068237304688	960.4105224609375	96.27841186523438	782.6304321289062	940.74951171875	6.172921657562256	815.3035278320312	446.2872619628906	85.20304870605469	777.315673828125	586.4830322265625	75.32308197021484	841.1531982421875	34.68722915649414	249.1373901367188	823.4308471679688	219.7169647216797	161.795654296875	1000.194519042969	28.0853385925293	87.46212005615234	988.0740356445312	33.75207901000977	174.0101013183594	890.7879028320312	34.36812973022461	132.2520294189453	872.3563842773438	34.94234466552734	309.0505065917969	1117.687255859375	500.7782592773438	41.81154251098633	1097.124267578125	745.514404296875	110.2715225219727	1094.838623046875	100.9936599731445	205.3368530273438	1121.146606445312	375.1844177246094	61.59234619140625	1138.161254882812	42.11076736450195	36.77079772949219	1071.948852539062	52.52508544921875	78.73479461669922	1145.755615234375	66.01441192626953	146.345703125	1010.760437011719	95.54136657714844	238.9705505371094	891.7039794921875	958.0428466796875	273.2756042480469	nan	nan	nan	
332	3.31	775.3682861328125	950.6737670898438	218.4671936035156	833.9026489257812	1034.200927734375	242.7749633789062	930.4301147460938	1199.41357421875	30.6607551574707	819.3345947265625	1135.712524414062	249.3381805419922	819.4228515625	1385.987548828125	220.4848480224609	899.6839599609375	1314.6318359375	84.04827117919922	857.7470092773438	1241.133666992188	288.9353332519531	720.8213500976562	1348.206420898438	184.2145080566406	717.7653198242188	1367.266967773438	84.27474975585938	641.3610229492188	1251.560791015625	75.74874114990234	617.99462890625	1063.033325195312	44.50437164306641	649.5306396484375	1029.653930664062	118.854118347168	734.8477172851562	944.0298461914062	-103.8196640014648	659.7329711914062	907.3888549804688	-106.6102905273438	629.2950439453125	987.0109252929688	-12.57425022125244	773.200927734375	808.8753662109375	-214.3668670654297	692.0001831054688	850.53564453125	-163.8361206054688	745.7322387695312	885.1729736328125	-183.0134124755859	983.5253295898438	1368.907592773438	246.4564056396484	1020.336486816406	1308.647338867188	291.7777404785156	1026.6142578125	1053.069458007812	351.7877197265625	944.0818481445312	1044.77783203125	306.2023620605469	1067.501220703125	816.8126831054688	279.9653625488281	1084.27734375	817.7216796875	352.0889587402344	1050.0986328125	986.8839721679688	355.4111328125	1038.031616210938	650.3187255859375	315.2220458984375	1078.8330078125	709.7772827148438	299.8053283691406	1074.578857421875	729.5432739257812	366.755126953125	938.4071044921875	1575.494262695312	210.1046447753906	821.4214477539062	1581.64208984375	49.41484069824219	941.1905517578125	1589.058837890625	76.64656829833984	781.1111450195312	1563.06396484375	190.5257568359375	702.4613647460938	938.1378173828125	92.07754516601562	1035.996337890625	944.6416015625	228.4072723388672	1033.979614257812	960.72021484375	86.32972717285156	785.072021484375	940.3997802734375	0.4228338003158569	815.6143798828125	446.083984375	83.58161163330078	778.6328125	586.5546875	73.03598022460938	841.2823486328125	34.81435394287109	249.1887664794922	823.5171508789062	219.8848114013672	161.3142242431641	1000.11181640625	28.02594566345215	87.37350463867188	988.0631713867188	33.78514099121094	173.9732360839844	890.7967529296875	34.3218994140625	132.2300872802734	872.435546875	35.32821655273438	309.0755310058594	1121.357055664062	501.6605834960938	28.65711402893066	1101.596069335938	746.308349609375	98.47494506835938	1109.919311523438	93.34246063232422	172.1311492919922	1127.736450195312	375.2449951171875	42.95321655273438	1151.293090820312	43.88910293579102	0.2501664161682129	1085.663208007812	50.77733612060547	43.81318283081055	1160.446411132812	62.6499137878418	110.47998046875	1026.465942382812	84.26741027832031	207.1291198730469	898.8900756835938	958.2052612304688	265.6732788085938	nan	nan	nan	
